{
  "accessors": [
    {
      "bufferView": 2,
      "componentType": 5126,
      "count": 3122,
      "max": [
        0.7218519449234009,
        0.8267501592636108,
        1.1279823780059814
      ],
      "min": [
        -0.7218519449234009,
        -0.8267501592636108,
        -1.1279823780059814
      ],
      "type": "VEC3"
    },
    {
      "bufferView": 2,
      "byteOffset": 37464,
      "componentType": 5126,
      "count": 3122,
      "max": [
        0.9993494749069214,
        0.9999977350234985,
        0.9999511241912842
      ],
      "min": [
        -0.999983549118042,
        -0.9999930262565613,
        -0.9999999403953552
      ],
      "type": "VEC3"
    },
    {
      "bufferView": 3,
      "componentType": 5126,
      "count": 3122,
      "max": [
        0.9999993443489075,
        0.9999997615814209,
        0.9932717680931091,
        1.0
      ],
      "min": [
        -0.9999647736549377,
        -1.0,
        -0.9999417066574097,
        -1.0
      ],
      "type": "VEC4"
    },
    {
      "bufferView": 1,
      "componentType": 5126,
      "count": 3122,
      "max": [
        0.9993913769721985,
        0.9987398982048035
      ],
      "min": [
        0.0011509866453707218,
        0.00037391239311546087
      ],
      "type": "VEC2"
    },
    {
      "bufferView": 0,
      "componentType": 5125,
      "count": 4680,
      "type": "SCALAR"
    }
  ],
  "asset": {
    "extras": {
      "author": "A18K (https://sketchfab.com/A18K)",
      "license": "CC-BY-4.0 (http://creativecommons.org/licenses/by/4.0/)",
      "source": "https://sketchfab.com/3d-models/old-chair-6e35f6fdf1264db4880049b802f18ea2",
      "title": "Old Chair"
    },
    "generator": "Sketchfab-12.68.0",
    "version": "2.0"
  },
  "bufferViews": [
    {
      "buffer": 0,
      "byteLength": 18720,
      "name": "floatBufferViews",
      "target": 34963
    },
    {
      "buffer": 0,
      "byteLength": 24976,
      "byteOffset": 18720,
      "byteStride": 8,
      "name": "floatBufferViews",
      "target": 34962
    },
    {
      "buffer": 0,
      "byteLength": 74928,
      "byteOffset": 43696,
      "byteStride": 12,
      "name": "floatBufferViews",
      "target": 34962
    },
    {
      "buffer": 0,
      "byteLength": 49952,
      "byteOffset": 118624,
      "byteStride": 16,
      "name": "floatBufferViews",
      "target": 34962
    }
  ],
  "buffers": [
    {
      "byteLength": 168576,
      "uri": "scene.bin"
    }
  ],
  "images": [
    {
      "uri": "textures/Material.1257565_baseColor.png"
    },
    {
      "uri": "textures/Material.1257565_normal.png"
    }
  ],
  "materials": [
    {
      "doubleSided": true,
      "name": "Material.1257565",
      "normalTexture": {
        "index": 1
      },
      "pbrMetallicRoughness": {
        "baseColorTexture": {
          "index": 0
        },
        "roughnessFactor": 0.9070873538478376
      }
    }
  ],
  "meshes": [
    {
      "name": "Cube.1629_Material.1257565_0",
      "primitives": [
        {
          "attributes": {
            "NORMAL": 1,
            "POSITION": 0,
            "TANGENT": 2,
            "TEXCOORD_0": 3
          },
          "indices": 4,
          "material": 0,
          "mode": 4
        }
      ]
    }
  ],
  "nodes": [
    {
      "children": [
        1
      ],
      "matrix": [
        0.0057051959447562695,
        0.0,
        0.0,
        0.0,
        0.0,
        1.2668079795732966e-18,
        -0.0057051959447562695,
        0.0,
        0.0,
        0.0057051959447562695,
        1.2668079795732966e-18,
        0.0,
        0.0,
        0.0,
        0.0,
        1.0
      ],
      "name": "Sketchfab_model"
    },
    {
      "children": [
        2
      ],
      "matrix": [
        1.0,
        0.0,
        0.0,
        0.0,
        0.0,
        0.0,
        1.0,
        0.0,
        0.0,
        -1.0,
        0.0,
        0.0,
        0.0,
        0.0,
        0.0,
        1.0
      ],
      "name": "fdaf9a8c16df484cb651e93cdb8837f1.fbx"
    },
    {
      "children": [
        3
      ],
      "name": "RootNode"
    },
    {
      "children": [
        4
      ],
      "matrix": [
        100.0,
        0.0,
        0.0,
        0.0,
        0.0,
        -1.629206793918314e-05,
        -99.99999999999868,
        0.0,
        0.0,
        99.99999999999868,
        -1.629206793918314e-05,
        0.0,
        0.0,
        0.0,
        0.0,
        1.0
      ],
      "name": "Cube.1629"
    },
    {
      "mesh": 0,
      "name": "Cube.1629_Material.1257565_0"
    }
  ],
  "samplers": [
    {
      "magFilter": 9729,
      "minFilter": 9987,
      "wrapS": 10497,
      "wrapT": 10497
    }
  ],
  "scene": 0,
  "scenes": [
    {
      "name": "Sketchfab_Scene",
      "nodes": [
        0
      ]
    }
  ],
  "textures": [
    {
      "sampler": 0,
      "source": 0
    },
    {
      "sampler": 0,
      "source": 1
    }
  ]
}
