{
  "accessors": [
    {
      "bufferView": 2,
      "componentType": 5126,
      "count": 25,
      "max": [
        250.0,
        250.0,
        0.0
      ],
      "min": [
        -250.0,
        -250.0,
        0.0
      ],
      "type": "VEC3"
    },
    {
      "bufferView": 2,
      "byteOffset": 300,
      "componentType": 5126,
      "count": 25,
      "max": [
        0.0,
        0.0,
        1.0
      ],
      "min": [
        0.0,
        0.0,
        1.0
      ],
      "type": "VEC3"
    },
    {
      "bufferView": 1,
      "componentType": 5126,
      "count": 25,
      "max": [
        1.0,
        1.0
      ],
      "min": [
        0.0,
        0.0
      ],
      "type": "VEC2"
    },
    {
      "bufferView": 0,
      "componentType": 5125,
      "count": 96,
      "type": "SCALAR"
    },
    {
      "bufferView": 2,
      "byteOffset": 600,
      "componentType": 5126,
      "count": 1428,
      "max": [
        50.0,
        110.52845001220703,
        40.405338287353516
      ],
      "min": [
        -50.0,
        7.996547698974609,
        -1.5946850776672363
      ],
      "type": "VEC3"
    },
    {
      "bufferView": 2,
      "byteOffset": 17736,
      "componentType": 5126,
      "count": 1428,
      "max": [
        1.0,
        1.0,
        1.0
      ],
      "min": [
        -1.0,
        -1.0,
        -1.0
      ],
      "type": "VEC3"
    },
    {
      "bufferView": 1,
      "byteOffset": 200,
      "componentType": 5126,
      "count": 1428,
      "max": [
        1.0208523273468018,
        1.7170783281326294
      ],
      "min": [
        -2.9172842502593994,
        -0.9023867845535278
      ],
      "type": "VEC2"
    },
    {
      "bufferView": 1,
      "byteOffset": 11624,
      "componentType": 5126,
      "count": 1428,
      "max": [
        0.9988218545913696,
        0.9721671342849731
      ],
      "min": [
        0.0005000000237487257,
        0.0005000000237487257
      ],
      "type": "VEC2"
    },
    {
      "bufferView": 0,
      "byteOffset": 384,
      "componentType": 5125,
      "count": 2166,
      "type": "SCALAR"
    },
    {
      "bufferView": 2,
      "byteOffset": 34872,
      "componentType": 5126,
      "count": 2588,
      "max": [
        47.404319763183594,
        108.59911346435547,
        43.21630859375
      ],
      "min": [
        -47.404319763183594,
        -10.750864028930664,
        -0.9143104553222656
      ],
      "type": "VEC3"
    },
    {
      "bufferView": 2,
      "byteOffset": 65928,
      "componentType": 5126,
      "count": 2588,
      "max": [
        1.0,
        1.0,
        1.0
      ],
      "min": [
        -1.0,
        -1.0,
        -1.0
      ],
      "type": "VEC3"
    },
    {
      "bufferView": 1,
      "byteOffset": 23048,
      "componentType": 5126,
      "count": 2588,
      "max": [
        0.9994999766349792,
        0.7516557574272156
      ],
      "min": [
        0.0005000000237487257,
        0.0005000000237487257
      ],
      "type": "VEC2"
    },
    {
      "bufferView": 1,
      "byteOffset": 43752,
      "componentType": 5126,
      "count": 2588,
      "max": [
        0.999500036239624,
        0.9958261251449585
      ],
      "min": [
        0.0005000000237487257,
        0.0005000000237487257
      ],
      "type": "VEC2"
    },
    {
      "bufferView": 0,
      "byteOffset": 9048,
      "componentType": 5125,
      "count": 4812,
      "type": "SCALAR"
    }
  ],
  "asset": {
    "extras": {
      "author": "MADE.COM (https://sketchfab.com/made-it)",
      "license": "CC-BY-NC-4.0 (http://creativecommons.org/licenses/by-nc/4.0/)",
      "source": "https://sketchfab.com/3d-models/aveiro-cabinet-dark-stain-oak-and-grey-7d854bf7b3014970873398838be7bffb",
      "title": "Aveiro Cabinet, Dark Stain Oak and Grey"
    },
    "generator": "Sketchfab-12.68.0",
    "version": "2.0"
  },
  "bufferViews": [
    {
      "buffer": 0,
      "byteLength": 28296,
      "name": "floatBufferViews",
      "target": 34963
    },
    {
      "buffer": 0,
      "byteLength": 64456,
      "byteOffset": 28296,
      "byteStride": 8,
      "name": "floatBufferViews",
      "target": 34962
    },
    {
      "buffer": 0,
      "byteLength": 96984,
      "byteOffset": 92752,
      "byteStride": 12,
      "name": "floatBufferViews",
      "target": 34962
    }
  ],
  "buffers": [
    {
      "byteLength": 189736,
      "uri": "scene.bin"
    }
  ],
  "images": [
    {
      "uri": "textures/FLOOR_baseColor.png"
    },
    {
      "uri": "textures/GREY_metallicRoughness.png"
    },
    {
      "uri": "textures/WOOD_baseColor.jpeg"
    }
  ],
  "materials": [
    {
      "alphaMode": "BLEND",
      "doubleSided": true,
      "name": "FLOOR",
      "pbrMetallicRoughness": {
        "baseColorFactor": [
          0.0,
          0.0,
          0.0,
          0.4041539634
        ],
        "baseColorTexture": {
          "index": 0
        },
        "metallicFactor": 0.0
      }
    },
    {
      "doubleSided": true,
      "name": "GREY",
      "occlusionTexture": {
        "index": 1
      },
      "pbrMetallicRoughness": {
        "baseColorFactor": [
          0.0370971093,
          0.0370971093,
          0.0370971093,
          1.0
        ],
        "metallicFactor": 0.0,
        "metallicRoughnessTexture": {
          "index": 1
        },
        "roughnessFactor": 0.3004954268292683
      }
    },
    {
      "doubleSided": true,
      "name": "WOOD",
      "pbrMetallicRoughness": {
        "baseColorTexture": {
          "index": 2
        },
        "metallicFactor": 0.0,
        "roughnessFactor": 0.5870807927
      }
    }
  ],
  "meshes": [
    {
      "name": "Plane001_FLOOR_0",
      "primitives": [
        {
          "attributes": {
            "NORMAL": 1,
            "POSITION": 0,
            "TEXCOORD_0": 2
          },
          "indices": 3,
          "material": 0,
          "mode": 4
        }
      ]
    },
    {
      "name": "Averio_Cabinet_Old_Stain_Oak_and_Grey_GREY_0",
      "primitives": [
        {
          "attributes": {
            "NORMAL": 5,
            "POSITION": 4,
            "TEXCOORD_0": 6,
            "TEXCOORD_1": 7
          },
          "indices": 8,
          "material": 1,
          "mode": 4
        }
      ]
    },
    {
      "name": "Averio_Cabinet_Old_Stain_Oak_and_Grey_WOOD_0",
      "primitives": [
        {
          "attributes": {
            "NORMAL": 10,
            "POSITION": 9,
            "TEXCOORD_0": 11,
            "TEXCOORD_1": 12
          },
          "indices": 13,
          "material": 2,
          "mode": 4
        }
      ]
    }
  ],
  "nodes": [
    {
      "children": [
        1
      ],
      "matrix": [
        1.0,
        0.0,
        0.0,
        0.0,
        0.0,
        2.220446049250313e-16,
        -1.0,
        0.0,
        0.0,
        1.0,
        2.220446049250313e-16,
        0.0,
        0.0,
        0.0,
        0.0,
        1.0
      ],
      "name": "Sketchfab_model"
    },
    {
      "children": [
        2
      ],
      "matrix": [
        1.0,
        0.0,
        0.0,
        0.0,
        0.0,
        0.0,
        1.0,
        0.0,
        0.0,
        -1.0,
        0.0,
        0.0,
        0.0,
        0.0,
        0.0,
        1.0
      ],
      "name": "9ca9ffa44636439eae8d4ef891d42838.fbx"
    },
    {
      "children": [
        3,
        5
      ],
      "name": "RootNode"
    },
    {
      "children": [
        4
      ],
      "matrix": [
        0.6681156158447266,
        0.0,
        0.0,
        0.0,
        0.0,
        1.483514679644863e-16,
        -0.6681156158447266,
        0.0,
        0.0,
        1.0,
        2.220446049250313e-16,
        0.0,
        0.0,
        0.0,
        0.0,
        1.0
      ],
      "name": "Plane001"
    },
    {
      "mesh": 0,
      "name": "Plane001_FLOOR_0"
    },
    {
      "children": [
        6
      ],
      "matrix": [
        1.0,
        0.0,
        0.0,
        0.0,
        0.0,
        0.9999999999999867,
        1.6292068494294582e-07,
        0.0,
        0.0,
        -1.6292068494294582e-07,
        0.9999999999999867,
        0.0,
        0.0,
        0.10000000149011612,
        0.0,
        1.0
      ],
      "name": "Averio_Cabinet_Old_Stain_Oak_and_Grey"
    },
    {
      "children": [
        7,
        8
      ],
      "matrix": [
        1.0,
        0.0,
        -0.0,
        0.0,
        0.0,
        1.0,
        0.0,
        0.0,
        0.0,
        0.0,
        1.0,
        0.0,
        1.9073486328125e-06,
        10.6808443069458,
        -20.81082534790039,
        1.0
      ],
      "name": "Object_6"
    },
    {
      "mesh": 1,
      "name": "Averio_Cabinet_Old_Stain_Oak_and_Grey_GREY_0"
    },
    {
      "mesh": 2,
      "name": "Averio_Cabinet_Old_Stain_Oak_and_Grey_WOOD_0"
    }
  ],
  "samplers": [
    {
      "magFilter": 9729,
      "minFilter": 9987,
      "wrapS": 10497,
      "wrapT": 10497
    }
  ],
  "scene": 0,
  "scenes": [
    {
      "name": "Sketchfab_Scene",
      "nodes": [
        0
      ]
    }
  ],
  "textures": [
    {
      "sampler": 0,
      "source": 0
    },
    {
      "sampler": 0,
      "source": 1
    },
    {
      "sampler": 0,
      "source": 2
    }
  ]
}
