{
  "accessors": [
    {
      "bufferView": 2,
      "componentType": 5126,
      "count": 396,
      "max": [
        2.7530508041381836,
        1.0,
        1.119171142578125
      ],
      "min": [
        -2.7548656463623047,
        -9.267585754394531,
        -1.026702880859375
      ],
      "type": "VEC3"
    },
    {
      "bufferView": 2,
      "byteOffset": 4752,
      "componentType": 5126,
      "count": 396,
      "max": [
        1.0,
        0.866025447845459,
        1.0
      ],
      "min": [
        -1.0,
        -0.866025447845459,
        -1.0
      ],
      "type": "VEC3"
    },
    {
      "bufferView": 1,
      "componentType": 5126,
      "count": 396,
      "max": [
        1.0,
        1.0
      ],
      "min": [
        -8.940696716308594e-08,
        0.01000000536441803
      ],
      "type": "VEC2"
    },
    {
      "bufferView": 0,
      "componentType": 5125,
      "count": 660,
      "type": "SCALAR"
    }
  ],
  "asset": {
    "extras": {
      "author": "Cup_Of_Tea (https://sketchfab.com/Cup_Of_Tea)",
      "license": "CC-BY-4.0 (http://creativecommons.org/licenses/by/4.0/)",
      "source": "https://sketchfab.com/3d-models/hexagon-wall-decoration-d220ac4634484bee851d5bdc9c8b9226",
      "title": "Hexagon Wall Decoration"
    },
    "generator": "Sketchfab-13.4.0",
    "version": "2.0"
  },
  "bufferViews": [
    {
      "buffer": 0,
      "byteLength": 2640,
      "name": "floatBufferViews",
      "target": 34963
    },
    {
      "buffer": 0,
      "byteLength": 3168,
      "byteOffset": 2640,
      "byteStride": 8,
      "name": "floatBufferViews",
      "target": 34962
    },
    {
      "buffer": 0,
      "byteLength": 9504,
      "byteOffset": 5808,
      "byteStride": 12,
      "name": "floatBufferViews",
      "target": 34962
    }
  ],
  "buffers": [
    {
      "byteLength": 15312,
      "uri": "scene.bin"
    }
  ],
  "materials": [
    {
      "doubleSided": true,
      "name": "Scene_-_Root",
      "pbrMetallicRoughness": {
        "baseColorFactor": [
          0.9602083826516892,
          0.5402746548213386,
          0.0016820681473392314,
          1.0
        ],
        "roughnessFactor": 0.6
      }
    }
  ],
  "meshes": [
    {
      "name": "Cylinder.011__0",
      "primitives": [
        {
          "attributes": {
            "NORMAL": 1,
            "POSITION": 0,
            "TEXCOORD_0": 2
          },
          "indices": 3,
          "material": 0,
          "mode": 4
        }
      ]
    }
  ],
  "nodes": [
    {
      "children": [
        1
      ],
      "matrix": [
        1.0,
        0.0,
        0.0,
        0.0,
        0.0,
        2.220446049250313e-16,
        -1.0,
        0.0,
        0.0,
        1.0,
        2.220446049250313e-16,
        0.0,
        0.0,
        0.0,
        0.0,
        1.0
      ],
      "name": "Sketchfab_model"
    },
    {
      "children": [
        2
      ],
      "matrix": [
        0.009999999776482582,
        0.0,
        0.0,
        0.0,
        0.0,
        0.0,
        0.009999999776482582,
        0.0,
        0.0,
        -0.009999999776482582,
        0.0,
        0.0,
        0.0,
        0.0,
        0.0,
        1.0
      ],
      "name": "fa588294a15148aab755454d5a60eb5c.fbx"
    },
    {
      "children": [
        3,
        6,
        8
      ],
      "name": "RootNode"
    },
    {
      "children": [
        4
      ],
      "matrix": [
        -29.08647719990347,
        -5.518906457566863,
        -95.51711910171437,
        0.0,
        56.63930913109449,
        79.46723428563203,
        -21.83912397841966,
        0.0,
        77.11008775993375,
        -60.45246356562044,
        -19.98834696773717,
        0.0,
        407.6245422363281,
        590.38623046875,
        -100.54539489746094,
        1.0
      ],
      "name": "Light"
    },
    {
      "children": [
        5
      ],
      "matrix": [
        1.0,
        0.0,
        0.0,
        0.0,
        0.0,
        2.220446049250313e-16,
        1.0,
        0.0,
        0.0,
        -1.0,
        2.220446049250313e-16,
        0.0,
        0.0,
        0.0,
        0.0,
        1.0
      ],
      "name": "Object_4"
    },
    {
      "name": "Object_5"
    },
    {
      "children": [
        7
      ],
      "matrix": [
        -65.15581009765468,
        -44.527143038140764,
        -61.41704928909654,
        0.0,
        -32.40135466989878,
        89.5395708958271,
        -30.542085476036902,
        0.0,
        68.59207001076176,
        1.2755314797120858e-05,
        -72.76761921184276,
        0.0,
        735.88916015625,
        495.8309326171875,
        692.5791015625,
        1.0
      ],
      "name": "Camera"
    },
    {
      "name": "Object_7"
    },
    {
      "children": [
        9
      ],
      "matrix": [
        -0.03369854867153883,
        -26.859250863497557,
        -7.989619449092853e-07,
        -0.0,
        -4.349832696775105e-06,
        7.998375930429114e-07,
        -26.7052211761471,
        -0.0,
        -1.7340686978318962,
        0.00217562279418863,
        2.825158727179093e-07,
        -0.0,
        -363.5397644042969,
        186.02325439453125,
        -358.20367431640625,
        1.0
      ],
      "name": "Cylinder.011"
    },
    {
      "mesh": 0,
      "name": "Cylinder.011__0"
    }
  ],
  "scene": 0,
  "scenes": [
    {
      "name": "Sketchfab_Scene",
      "nodes": [
        0
      ]
    }
  ]
}
